<mxfile host="app.diagrams.net" modified="2022-05-27T12:46:57.742Z" agent="5.0 (Windows NT 10.0; Win64; x64) AppleWebKit/537.36 (KHTML, like Gecko) Chrome/101.0.0.0 Safari/537.36" etag="QMkx5ON-e2nFv2S5Dsjy" version="18.1.3" type="github">
  <diagram id="iCnqLlOs-9bwUF1GZQLF" name="Page-1">
    <mxGraphModel dx="1038" dy="529" grid="1" gridSize="10" guides="1" tooltips="1" connect="1" arrows="1" fold="1" page="1" pageScale="1" pageWidth="827" pageHeight="1169" math="0" shadow="0">
      <root>
        <mxCell id="0" />
        <mxCell id="1" parent="0" />
        <mxCell id="bIU5tB6AOzNXFzMOygIK-18" value="" style="group" vertex="1" connectable="0" parent="1">
          <mxGeometry x="80" y="60" width="20" height="70" as="geometry" />
        </mxCell>
        <mxCell id="bIU5tB6AOzNXFzMOygIK-5" value="" style="rounded=0;whiteSpace=wrap;html=1;dashed=1;" vertex="1" parent="bIU5tB6AOzNXFzMOygIK-18">
          <mxGeometry width="20" height="70" as="geometry" />
        </mxCell>
        <mxCell id="bIU5tB6AOzNXFzMOygIK-1" value="v&lt;sub&gt;0&lt;/sub&gt;" style="text;html=1;strokeColor=none;fillColor=none;align=center;verticalAlign=middle;whiteSpace=wrap;rounded=0;" vertex="1" parent="bIU5tB6AOzNXFzMOygIK-18">
          <mxGeometry width="20" height="20" as="geometry" />
        </mxCell>
        <mxCell id="bIU5tB6AOzNXFzMOygIK-2" value="v&lt;span style=&quot;font-size: 10px;&quot;&gt;&lt;sub&gt;1&lt;/sub&gt;&lt;/span&gt;" style="text;html=1;strokeColor=none;fillColor=none;align=center;verticalAlign=middle;whiteSpace=wrap;rounded=0;" vertex="1" parent="bIU5tB6AOzNXFzMOygIK-18">
          <mxGeometry y="50" width="20" height="20" as="geometry" />
        </mxCell>
        <mxCell id="bIU5tB6AOzNXFzMOygIK-3" value="" style="endArrow=classic;html=1;rounded=0;exitX=0.5;exitY=1;exitDx=0;exitDy=0;entryX=0.5;entryY=0;entryDx=0;entryDy=0;" edge="1" parent="bIU5tB6AOzNXFzMOygIK-18" source="bIU5tB6AOzNXFzMOygIK-1" target="bIU5tB6AOzNXFzMOygIK-2">
          <mxGeometry width="50" height="50" relative="1" as="geometry">
            <mxPoint x="50" y="50" as="sourcePoint" />
            <mxPoint x="100" as="targetPoint" />
          </mxGeometry>
        </mxCell>
        <mxCell id="bIU5tB6AOzNXFzMOygIK-10" value="a" style="text;html=1;strokeColor=none;fillColor=none;align=center;verticalAlign=middle;whiteSpace=wrap;rounded=0;dashed=1;" vertex="1" parent="bIU5tB6AOzNXFzMOygIK-18">
          <mxGeometry x="10" y="26" width="10" height="10" as="geometry" />
        </mxCell>
        <mxCell id="bIU5tB6AOzNXFzMOygIK-19" value="" style="group" vertex="1" connectable="0" parent="1">
          <mxGeometry x="100" y="60" width="20" height="70" as="geometry" />
        </mxCell>
        <mxCell id="bIU5tB6AOzNXFzMOygIK-20" value="" style="rounded=0;whiteSpace=wrap;html=1;dashed=1;" vertex="1" parent="bIU5tB6AOzNXFzMOygIK-19">
          <mxGeometry width="20" height="70" as="geometry" />
        </mxCell>
        <mxCell id="bIU5tB6AOzNXFzMOygIK-21" value="v&lt;sub&gt;0&lt;/sub&gt;" style="text;html=1;strokeColor=none;fillColor=none;align=center;verticalAlign=middle;whiteSpace=wrap;rounded=0;" vertex="1" parent="bIU5tB6AOzNXFzMOygIK-19">
          <mxGeometry width="20" height="20" as="geometry" />
        </mxCell>
        <mxCell id="bIU5tB6AOzNXFzMOygIK-22" value="v&lt;span style=&quot;font-size: 8.33333px;&quot;&gt;&lt;sub&gt;3&lt;/sub&gt;&lt;/span&gt;" style="text;html=1;strokeColor=none;fillColor=none;align=center;verticalAlign=middle;whiteSpace=wrap;rounded=0;" vertex="1" parent="bIU5tB6AOzNXFzMOygIK-19">
          <mxGeometry y="50" width="20" height="20" as="geometry" />
        </mxCell>
        <mxCell id="bIU5tB6AOzNXFzMOygIK-23" value="" style="endArrow=classic;html=1;rounded=0;exitX=0.5;exitY=1;exitDx=0;exitDy=0;entryX=0.5;entryY=0;entryDx=0;entryDy=0;" edge="1" parent="bIU5tB6AOzNXFzMOygIK-19" source="bIU5tB6AOzNXFzMOygIK-21" target="bIU5tB6AOzNXFzMOygIK-22">
          <mxGeometry width="50" height="50" relative="1" as="geometry">
            <mxPoint x="50" y="50" as="sourcePoint" />
            <mxPoint x="100" as="targetPoint" />
          </mxGeometry>
        </mxCell>
        <mxCell id="bIU5tB6AOzNXFzMOygIK-24" value="b" style="text;html=1;strokeColor=none;fillColor=none;align=center;verticalAlign=middle;whiteSpace=wrap;rounded=0;dashed=1;" vertex="1" parent="bIU5tB6AOzNXFzMOygIK-19">
          <mxGeometry x="10" y="26" width="10" height="10" as="geometry" />
        </mxCell>
        <mxCell id="bIU5tB6AOzNXFzMOygIK-25" value="" style="group" vertex="1" connectable="0" parent="1">
          <mxGeometry x="80" y="150" width="20" height="70" as="geometry" />
        </mxCell>
        <mxCell id="bIU5tB6AOzNXFzMOygIK-26" value="" style="rounded=0;whiteSpace=wrap;html=1;dashed=1;" vertex="1" parent="bIU5tB6AOzNXFzMOygIK-25">
          <mxGeometry width="20" height="70" as="geometry" />
        </mxCell>
        <mxCell id="bIU5tB6AOzNXFzMOygIK-27" value="v&lt;span style=&quot;font-size: 10px;&quot;&gt;&lt;sub&gt;3&lt;/sub&gt;&lt;/span&gt;" style="text;html=1;strokeColor=none;fillColor=none;align=center;verticalAlign=middle;whiteSpace=wrap;rounded=0;" vertex="1" parent="bIU5tB6AOzNXFzMOygIK-25">
          <mxGeometry width="20" height="20" as="geometry" />
        </mxCell>
        <mxCell id="bIU5tB6AOzNXFzMOygIK-28" value="v&lt;span style=&quot;font-size: 8.33333px;&quot;&gt;&lt;sub&gt;2&lt;/sub&gt;&lt;/span&gt;" style="text;html=1;strokeColor=none;fillColor=none;align=center;verticalAlign=middle;whiteSpace=wrap;rounded=0;" vertex="1" parent="bIU5tB6AOzNXFzMOygIK-25">
          <mxGeometry y="50" width="20" height="20" as="geometry" />
        </mxCell>
        <mxCell id="bIU5tB6AOzNXFzMOygIK-29" value="" style="endArrow=classic;html=1;rounded=0;exitX=0.5;exitY=1;exitDx=0;exitDy=0;entryX=0.5;entryY=0;entryDx=0;entryDy=0;" edge="1" parent="bIU5tB6AOzNXFzMOygIK-25" source="bIU5tB6AOzNXFzMOygIK-27" target="bIU5tB6AOzNXFzMOygIK-28">
          <mxGeometry width="50" height="50" relative="1" as="geometry">
            <mxPoint x="50" y="50" as="sourcePoint" />
            <mxPoint x="100" as="targetPoint" />
          </mxGeometry>
        </mxCell>
        <mxCell id="bIU5tB6AOzNXFzMOygIK-30" value="a" style="text;html=1;strokeColor=none;fillColor=none;align=center;verticalAlign=middle;whiteSpace=wrap;rounded=0;dashed=1;" vertex="1" parent="bIU5tB6AOzNXFzMOygIK-25">
          <mxGeometry x="10" y="26" width="10" height="10" as="geometry" />
        </mxCell>
        <mxCell id="bIU5tB6AOzNXFzMOygIK-31" value="" style="group" vertex="1" connectable="0" parent="1">
          <mxGeometry x="100" y="150" width="20" height="70" as="geometry" />
        </mxCell>
        <mxCell id="bIU5tB6AOzNXFzMOygIK-32" value="" style="rounded=0;whiteSpace=wrap;html=1;dashed=1;" vertex="1" parent="bIU5tB6AOzNXFzMOygIK-31">
          <mxGeometry width="20" height="70" as="geometry" />
        </mxCell>
        <mxCell id="bIU5tB6AOzNXFzMOygIK-33" value="v&lt;sub&gt;3&lt;/sub&gt;" style="text;html=1;strokeColor=none;fillColor=none;align=center;verticalAlign=middle;whiteSpace=wrap;rounded=0;" vertex="1" parent="bIU5tB6AOzNXFzMOygIK-31">
          <mxGeometry width="20" height="20" as="geometry" />
        </mxCell>
        <mxCell id="bIU5tB6AOzNXFzMOygIK-34" value="v&lt;span style=&quot;font-size: 8.33333px;&quot;&gt;&lt;sub&gt;4&lt;/sub&gt;&lt;/span&gt;" style="text;html=1;strokeColor=none;fillColor=none;align=center;verticalAlign=middle;whiteSpace=wrap;rounded=0;" vertex="1" parent="bIU5tB6AOzNXFzMOygIK-31">
          <mxGeometry y="50" width="20" height="20" as="geometry" />
        </mxCell>
        <mxCell id="bIU5tB6AOzNXFzMOygIK-35" value="" style="endArrow=classic;html=1;rounded=0;exitX=0.5;exitY=1;exitDx=0;exitDy=0;entryX=0.5;entryY=0;entryDx=0;entryDy=0;" edge="1" parent="bIU5tB6AOzNXFzMOygIK-31" source="bIU5tB6AOzNXFzMOygIK-33" target="bIU5tB6AOzNXFzMOygIK-34">
          <mxGeometry width="50" height="50" relative="1" as="geometry">
            <mxPoint x="50" y="50" as="sourcePoint" />
            <mxPoint x="100" as="targetPoint" />
          </mxGeometry>
        </mxCell>
        <mxCell id="bIU5tB6AOzNXFzMOygIK-36" value="b" style="text;html=1;strokeColor=none;fillColor=none;align=center;verticalAlign=middle;whiteSpace=wrap;rounded=0;dashed=1;" vertex="1" parent="bIU5tB6AOzNXFzMOygIK-31">
          <mxGeometry x="10" y="26" width="10" height="10" as="geometry" />
        </mxCell>
        <mxCell id="bIU5tB6AOzNXFzMOygIK-37" value="" style="endArrow=classic;html=1;rounded=0;exitX=1;exitY=1;exitDx=0;exitDy=0;" edge="1" parent="1" source="bIU5tB6AOzNXFzMOygIK-24">
          <mxGeometry width="50" height="50" relative="1" as="geometry">
            <mxPoint x="160" y="110" as="sourcePoint" />
            <mxPoint x="160" y="130" as="targetPoint" />
          </mxGeometry>
        </mxCell>
        <mxCell id="bIU5tB6AOzNXFzMOygIK-38" value="" style="endArrow=classic;html=1;rounded=0;exitX=1;exitY=1;exitDx=0;exitDy=0;" edge="1" parent="1" source="bIU5tB6AOzNXFzMOygIK-36">
          <mxGeometry width="50" height="50" relative="1" as="geometry">
            <mxPoint x="130" y="106" as="sourcePoint" />
            <mxPoint x="160" y="150" as="targetPoint" />
          </mxGeometry>
        </mxCell>
        <mxCell id="bIU5tB6AOzNXFzMOygIK-39" value="交汇" style="text;html=1;strokeColor=none;fillColor=none;align=center;verticalAlign=middle;whiteSpace=wrap;rounded=0;dashed=1;" vertex="1" parent="1">
          <mxGeometry x="140" y="130" width="40" height="20" as="geometry" />
        </mxCell>
        <mxCell id="bIU5tB6AOzNXFzMOygIK-40" value="" style="endArrow=classic;html=1;rounded=0;exitX=1;exitY=0.5;exitDx=0;exitDy=0;" edge="1" parent="1" source="bIU5tB6AOzNXFzMOygIK-39">
          <mxGeometry width="50" height="50" relative="1" as="geometry">
            <mxPoint x="200" y="170" as="sourcePoint" />
            <mxPoint x="210" y="140" as="targetPoint" />
          </mxGeometry>
        </mxCell>
        <mxCell id="bIU5tB6AOzNXFzMOygIK-49" value="" style="group" vertex="1" connectable="0" parent="1">
          <mxGeometry x="220" y="60" width="20" height="160" as="geometry" />
        </mxCell>
        <mxCell id="bIU5tB6AOzNXFzMOygIK-50" value="" style="rounded=0;whiteSpace=wrap;html=1;dashed=1;" vertex="1" parent="bIU5tB6AOzNXFzMOygIK-49">
          <mxGeometry width="20" height="160" as="geometry" />
        </mxCell>
        <mxCell id="bIU5tB6AOzNXFzMOygIK-51" value="v&lt;sub&gt;0&lt;/sub&gt;" style="text;html=1;strokeColor=none;fillColor=none;align=center;verticalAlign=middle;whiteSpace=wrap;rounded=0;" vertex="1" parent="bIU5tB6AOzNXFzMOygIK-49">
          <mxGeometry width="20" height="20" as="geometry" />
        </mxCell>
        <mxCell id="bIU5tB6AOzNXFzMOygIK-54" value="b" style="text;html=1;strokeColor=none;fillColor=none;align=center;verticalAlign=middle;whiteSpace=wrap;rounded=0;dashed=1;" vertex="1" parent="bIU5tB6AOzNXFzMOygIK-49">
          <mxGeometry x="10" y="26" width="10" height="10" as="geometry" />
        </mxCell>
        <mxCell id="bIU5tB6AOzNXFzMOygIK-52" value="v&lt;span style=&quot;font-size: 8.33333px;&quot;&gt;&lt;sub&gt;3&lt;/sub&gt;&lt;/span&gt;" style="text;html=1;strokeColor=none;fillColor=none;align=center;verticalAlign=middle;whiteSpace=wrap;rounded=0;" vertex="1" parent="bIU5tB6AOzNXFzMOygIK-49">
          <mxGeometry y="50" width="20" height="20" as="geometry" />
        </mxCell>
        <mxCell id="bIU5tB6AOzNXFzMOygIK-53" value="" style="endArrow=classic;html=1;rounded=0;exitX=0.5;exitY=1;exitDx=0;exitDy=0;entryX=0.5;entryY=0;entryDx=0;entryDy=0;" edge="1" parent="bIU5tB6AOzNXFzMOygIK-49" source="bIU5tB6AOzNXFzMOygIK-51" target="bIU5tB6AOzNXFzMOygIK-52">
          <mxGeometry width="50" height="50" relative="1" as="geometry">
            <mxPoint x="50" y="50" as="sourcePoint" />
            <mxPoint x="100" as="targetPoint" />
          </mxGeometry>
        </mxCell>
        <mxCell id="bIU5tB6AOzNXFzMOygIK-56" value="v&lt;sub&gt;3&lt;/sub&gt;" style="text;html=1;strokeColor=none;fillColor=none;align=center;verticalAlign=middle;whiteSpace=wrap;rounded=0;" vertex="1" parent="bIU5tB6AOzNXFzMOygIK-49">
          <mxGeometry y="90" width="20" height="20" as="geometry" />
        </mxCell>
        <mxCell id="bIU5tB6AOzNXFzMOygIK-57" value="b" style="text;html=1;strokeColor=none;fillColor=none;align=center;verticalAlign=middle;whiteSpace=wrap;rounded=0;dashed=1;" vertex="1" parent="bIU5tB6AOzNXFzMOygIK-49">
          <mxGeometry x="10" y="116" width="10" height="10" as="geometry" />
        </mxCell>
        <mxCell id="bIU5tB6AOzNXFzMOygIK-58" value="v&lt;span style=&quot;font-size: 8.33333px;&quot;&gt;&lt;sub&gt;4&lt;/sub&gt;&lt;/span&gt;" style="text;html=1;strokeColor=none;fillColor=none;align=center;verticalAlign=middle;whiteSpace=wrap;rounded=0;" vertex="1" parent="bIU5tB6AOzNXFzMOygIK-49">
          <mxGeometry y="140" width="20" height="20" as="geometry" />
        </mxCell>
        <mxCell id="bIU5tB6AOzNXFzMOygIK-59" value="" style="endArrow=classic;html=1;rounded=0;exitX=0.5;exitY=1;exitDx=0;exitDy=0;entryX=0.5;entryY=0;entryDx=0;entryDy=0;" edge="1" parent="bIU5tB6AOzNXFzMOygIK-49" source="bIU5tB6AOzNXFzMOygIK-56" target="bIU5tB6AOzNXFzMOygIK-58">
          <mxGeometry width="50" height="50" relative="1" as="geometry">
            <mxPoint x="-170" y="70" as="sourcePoint" />
            <mxPoint x="-120" y="20" as="targetPoint" />
          </mxGeometry>
        </mxCell>
        <mxCell id="bIU5tB6AOzNXFzMOygIK-60" value="" style="group" vertex="1" connectable="0" parent="1">
          <mxGeometry x="260" y="60" width="20" height="160" as="geometry" />
        </mxCell>
        <mxCell id="bIU5tB6AOzNXFzMOygIK-61" value="" style="rounded=0;whiteSpace=wrap;html=1;dashed=1;" vertex="1" parent="bIU5tB6AOzNXFzMOygIK-60">
          <mxGeometry width="20" height="160" as="geometry" />
        </mxCell>
        <mxCell id="bIU5tB6AOzNXFzMOygIK-62" value="v&lt;sub&gt;0&lt;/sub&gt;" style="text;html=1;strokeColor=none;fillColor=none;align=center;verticalAlign=middle;whiteSpace=wrap;rounded=0;" vertex="1" parent="bIU5tB6AOzNXFzMOygIK-60">
          <mxGeometry width="20" height="20" as="geometry" />
        </mxCell>
        <mxCell id="bIU5tB6AOzNXFzMOygIK-63" value="b" style="text;html=1;strokeColor=none;fillColor=none;align=center;verticalAlign=middle;whiteSpace=wrap;rounded=0;dashed=1;" vertex="1" parent="bIU5tB6AOzNXFzMOygIK-60">
          <mxGeometry x="10" y="26" width="10" height="10" as="geometry" />
        </mxCell>
        <mxCell id="bIU5tB6AOzNXFzMOygIK-64" value="v&lt;span style=&quot;font-size: 8.33333px;&quot;&gt;&lt;sub&gt;3&lt;/sub&gt;&lt;/span&gt;" style="text;html=1;strokeColor=none;fillColor=none;align=center;verticalAlign=middle;whiteSpace=wrap;rounded=0;" vertex="1" parent="bIU5tB6AOzNXFzMOygIK-60">
          <mxGeometry y="50" width="20" height="20" as="geometry" />
        </mxCell>
        <mxCell id="bIU5tB6AOzNXFzMOygIK-65" value="" style="endArrow=classic;html=1;rounded=0;exitX=0.5;exitY=1;exitDx=0;exitDy=0;entryX=0.5;entryY=0;entryDx=0;entryDy=0;" edge="1" parent="bIU5tB6AOzNXFzMOygIK-60" source="bIU5tB6AOzNXFzMOygIK-62" target="bIU5tB6AOzNXFzMOygIK-64">
          <mxGeometry width="50" height="50" relative="1" as="geometry">
            <mxPoint x="50" y="50" as="sourcePoint" />
            <mxPoint x="100" as="targetPoint" />
          </mxGeometry>
        </mxCell>
        <mxCell id="bIU5tB6AOzNXFzMOygIK-66" value="v&lt;sub&gt;3&lt;/sub&gt;" style="text;html=1;strokeColor=none;fillColor=none;align=center;verticalAlign=middle;whiteSpace=wrap;rounded=0;" vertex="1" parent="bIU5tB6AOzNXFzMOygIK-60">
          <mxGeometry y="90" width="20" height="20" as="geometry" />
        </mxCell>
        <mxCell id="bIU5tB6AOzNXFzMOygIK-67" value="a" style="text;html=1;strokeColor=none;fillColor=none;align=center;verticalAlign=middle;whiteSpace=wrap;rounded=0;dashed=1;" vertex="1" parent="bIU5tB6AOzNXFzMOygIK-60">
          <mxGeometry x="10" y="116" width="10" height="10" as="geometry" />
        </mxCell>
        <mxCell id="bIU5tB6AOzNXFzMOygIK-68" value="v&lt;span style=&quot;font-size: 8.33333px;&quot;&gt;&lt;sub&gt;2&lt;/sub&gt;&lt;/span&gt;" style="text;html=1;strokeColor=none;fillColor=none;align=center;verticalAlign=middle;whiteSpace=wrap;rounded=0;" vertex="1" parent="bIU5tB6AOzNXFzMOygIK-60">
          <mxGeometry y="140" width="20" height="20" as="geometry" />
        </mxCell>
        <mxCell id="bIU5tB6AOzNXFzMOygIK-69" value="" style="endArrow=classic;html=1;rounded=0;exitX=0.5;exitY=1;exitDx=0;exitDy=0;entryX=0.5;entryY=0;entryDx=0;entryDy=0;" edge="1" parent="bIU5tB6AOzNXFzMOygIK-60" source="bIU5tB6AOzNXFzMOygIK-66" target="bIU5tB6AOzNXFzMOygIK-68">
          <mxGeometry width="50" height="50" relative="1" as="geometry">
            <mxPoint x="-170" y="70" as="sourcePoint" />
            <mxPoint x="-120" y="20" as="targetPoint" />
          </mxGeometry>
        </mxCell>
        <mxCell id="bIU5tB6AOzNXFzMOygIK-70" value="" style="group" vertex="1" connectable="0" parent="1">
          <mxGeometry x="300" y="60" width="20" height="160" as="geometry" />
        </mxCell>
        <mxCell id="bIU5tB6AOzNXFzMOygIK-71" value="" style="rounded=0;whiteSpace=wrap;html=1;dashed=1;" vertex="1" parent="bIU5tB6AOzNXFzMOygIK-70">
          <mxGeometry width="20" height="160" as="geometry" />
        </mxCell>
        <mxCell id="bIU5tB6AOzNXFzMOygIK-72" value="v&lt;sub&gt;0&lt;/sub&gt;" style="text;html=1;strokeColor=none;fillColor=none;align=center;verticalAlign=middle;whiteSpace=wrap;rounded=0;" vertex="1" parent="bIU5tB6AOzNXFzMOygIK-70">
          <mxGeometry width="20" height="20" as="geometry" />
        </mxCell>
        <mxCell id="bIU5tB6AOzNXFzMOygIK-73" value="a" style="text;html=1;strokeColor=none;fillColor=none;align=center;verticalAlign=middle;whiteSpace=wrap;rounded=0;dashed=1;" vertex="1" parent="bIU5tB6AOzNXFzMOygIK-70">
          <mxGeometry x="10" y="26" width="10" height="10" as="geometry" />
        </mxCell>
        <mxCell id="bIU5tB6AOzNXFzMOygIK-74" value="v&lt;span style=&quot;font-size: 8.33333px;&quot;&gt;&lt;sub&gt;1&lt;/sub&gt;&lt;/span&gt;" style="text;html=1;strokeColor=none;fillColor=none;align=center;verticalAlign=middle;whiteSpace=wrap;rounded=0;" vertex="1" parent="bIU5tB6AOzNXFzMOygIK-70">
          <mxGeometry y="50" width="20" height="20" as="geometry" />
        </mxCell>
        <mxCell id="bIU5tB6AOzNXFzMOygIK-75" value="" style="endArrow=classic;html=1;rounded=0;exitX=0.5;exitY=1;exitDx=0;exitDy=0;entryX=0.5;entryY=0;entryDx=0;entryDy=0;" edge="1" parent="bIU5tB6AOzNXFzMOygIK-70" source="bIU5tB6AOzNXFzMOygIK-72" target="bIU5tB6AOzNXFzMOygIK-74">
          <mxGeometry width="50" height="50" relative="1" as="geometry">
            <mxPoint x="50" y="50" as="sourcePoint" />
            <mxPoint x="100" as="targetPoint" />
          </mxGeometry>
        </mxCell>
        <mxCell id="bIU5tB6AOzNXFzMOygIK-76" value="v&lt;sub&gt;3&lt;/sub&gt;" style="text;html=1;strokeColor=none;fillColor=none;align=center;verticalAlign=middle;whiteSpace=wrap;rounded=0;" vertex="1" parent="bIU5tB6AOzNXFzMOygIK-70">
          <mxGeometry y="90" width="20" height="20" as="geometry" />
        </mxCell>
        <mxCell id="bIU5tB6AOzNXFzMOygIK-77" value="b" style="text;html=1;strokeColor=none;fillColor=none;align=center;verticalAlign=middle;whiteSpace=wrap;rounded=0;dashed=1;" vertex="1" parent="bIU5tB6AOzNXFzMOygIK-70">
          <mxGeometry x="10" y="116" width="10" height="10" as="geometry" />
        </mxCell>
        <mxCell id="bIU5tB6AOzNXFzMOygIK-78" value="v&lt;span style=&quot;font-size: 8.33333px;&quot;&gt;&lt;sub&gt;4&lt;/sub&gt;&lt;/span&gt;" style="text;html=1;strokeColor=none;fillColor=none;align=center;verticalAlign=middle;whiteSpace=wrap;rounded=0;" vertex="1" parent="bIU5tB6AOzNXFzMOygIK-70">
          <mxGeometry y="140" width="20" height="20" as="geometry" />
        </mxCell>
        <mxCell id="bIU5tB6AOzNXFzMOygIK-79" value="" style="endArrow=classic;html=1;rounded=0;exitX=0.5;exitY=1;exitDx=0;exitDy=0;entryX=0.5;entryY=0;entryDx=0;entryDy=0;" edge="1" parent="bIU5tB6AOzNXFzMOygIK-70" source="bIU5tB6AOzNXFzMOygIK-76" target="bIU5tB6AOzNXFzMOygIK-78">
          <mxGeometry width="50" height="50" relative="1" as="geometry">
            <mxPoint x="-170" y="70" as="sourcePoint" />
            <mxPoint x="-120" y="20" as="targetPoint" />
          </mxGeometry>
        </mxCell>
        <mxCell id="bIU5tB6AOzNXFzMOygIK-81" value="" style="group" vertex="1" connectable="0" parent="1">
          <mxGeometry x="340" y="60" width="20" height="160" as="geometry" />
        </mxCell>
        <mxCell id="bIU5tB6AOzNXFzMOygIK-82" value="" style="rounded=0;whiteSpace=wrap;html=1;dashed=1;" vertex="1" parent="bIU5tB6AOzNXFzMOygIK-81">
          <mxGeometry width="20" height="160" as="geometry" />
        </mxCell>
        <mxCell id="bIU5tB6AOzNXFzMOygIK-83" value="v&lt;sub&gt;0&lt;/sub&gt;" style="text;html=1;strokeColor=none;fillColor=none;align=center;verticalAlign=middle;whiteSpace=wrap;rounded=0;" vertex="1" parent="bIU5tB6AOzNXFzMOygIK-81">
          <mxGeometry width="20" height="20" as="geometry" />
        </mxCell>
        <mxCell id="bIU5tB6AOzNXFzMOygIK-84" value="a" style="text;html=1;strokeColor=none;fillColor=none;align=center;verticalAlign=middle;whiteSpace=wrap;rounded=0;dashed=1;" vertex="1" parent="bIU5tB6AOzNXFzMOygIK-81">
          <mxGeometry x="10" y="26" width="10" height="10" as="geometry" />
        </mxCell>
        <mxCell id="bIU5tB6AOzNXFzMOygIK-85" value="v&lt;span style=&quot;font-size: 8.33333px;&quot;&gt;&lt;sub&gt;1&lt;/sub&gt;&lt;/span&gt;" style="text;html=1;strokeColor=none;fillColor=none;align=center;verticalAlign=middle;whiteSpace=wrap;rounded=0;" vertex="1" parent="bIU5tB6AOzNXFzMOygIK-81">
          <mxGeometry y="50" width="20" height="20" as="geometry" />
        </mxCell>
        <mxCell id="bIU5tB6AOzNXFzMOygIK-86" value="" style="endArrow=classic;html=1;rounded=0;exitX=0.5;exitY=1;exitDx=0;exitDy=0;entryX=0.5;entryY=0;entryDx=0;entryDy=0;" edge="1" parent="bIU5tB6AOzNXFzMOygIK-81" source="bIU5tB6AOzNXFzMOygIK-83" target="bIU5tB6AOzNXFzMOygIK-85">
          <mxGeometry width="50" height="50" relative="1" as="geometry">
            <mxPoint x="50" y="50" as="sourcePoint" />
            <mxPoint x="100" as="targetPoint" />
          </mxGeometry>
        </mxCell>
        <mxCell id="bIU5tB6AOzNXFzMOygIK-87" value="v&lt;sub&gt;3&lt;/sub&gt;" style="text;html=1;strokeColor=none;fillColor=none;align=center;verticalAlign=middle;whiteSpace=wrap;rounded=0;" vertex="1" parent="bIU5tB6AOzNXFzMOygIK-81">
          <mxGeometry y="90" width="20" height="20" as="geometry" />
        </mxCell>
        <mxCell id="bIU5tB6AOzNXFzMOygIK-88" value="a" style="text;html=1;strokeColor=none;fillColor=none;align=center;verticalAlign=middle;whiteSpace=wrap;rounded=0;dashed=1;" vertex="1" parent="bIU5tB6AOzNXFzMOygIK-81">
          <mxGeometry x="10" y="117" width="10" height="10" as="geometry" />
        </mxCell>
        <mxCell id="bIU5tB6AOzNXFzMOygIK-89" value="v&lt;span style=&quot;font-size: 8.33333px;&quot;&gt;&lt;sub&gt;2&lt;/sub&gt;&lt;/span&gt;" style="text;html=1;strokeColor=none;fillColor=none;align=center;verticalAlign=middle;whiteSpace=wrap;rounded=0;" vertex="1" parent="bIU5tB6AOzNXFzMOygIK-81">
          <mxGeometry y="140" width="20" height="20" as="geometry" />
        </mxCell>
        <mxCell id="bIU5tB6AOzNXFzMOygIK-90" value="" style="endArrow=classic;html=1;rounded=0;exitX=0.5;exitY=1;exitDx=0;exitDy=0;entryX=0.5;entryY=0;entryDx=0;entryDy=0;" edge="1" parent="bIU5tB6AOzNXFzMOygIK-81" source="bIU5tB6AOzNXFzMOygIK-87" target="bIU5tB6AOzNXFzMOygIK-89">
          <mxGeometry width="50" height="50" relative="1" as="geometry">
            <mxPoint x="-170" y="70" as="sourcePoint" />
            <mxPoint x="-120" y="20" as="targetPoint" />
          </mxGeometry>
        </mxCell>
      </root>
    </mxGraphModel>
  </diagram>
</mxfile>
